<mxfile host="app.diagrams.net" agent="Mozilla/5.0 (Windows NT 10.0; Win64; x64) AppleWebKit/537.36 (KHTML, like Gecko) Chrome/131.0.0.0 Safari/537.36" version="25.0.1">
  <diagram name="Página-1" id="_0rm1in1wNqDFiqb-IeU">
    <mxGraphModel dx="1728" dy="915" grid="1" gridSize="10" guides="1" tooltips="1" connect="1" arrows="1" fold="1" page="1" pageScale="1" pageWidth="3300" pageHeight="4681" math="0" shadow="0">
      <root>
        <mxCell id="0" />
        <mxCell id="1" parent="0" />
        <mxCell id="OZl_Llw-4M67hQVz8N4L-35" value="" style="rounded=1;whiteSpace=wrap;html=1;rotation=90;" vertex="1" parent="1">
          <mxGeometry x="550" y="1260" width="630" height="505" as="geometry" />
        </mxCell>
        <mxCell id="OZl_Llw-4M67hQVz8N4L-5" value="App" style="swimlane;fontStyle=0;childLayout=stackLayout;horizontal=1;startSize=26;fillColor=none;horizontalStack=0;resizeParent=1;resizeParentMax=0;resizeLast=0;collapsible=1;marginBottom=0;whiteSpace=wrap;html=1;" vertex="1" parent="1">
          <mxGeometry x="430" y="390" width="140" height="78" as="geometry" />
        </mxCell>
        <mxCell id="OZl_Llw-4M67hQVz8N4L-6" value="&lt;div&gt;+ Inicializar()&lt;/div&gt;&lt;div&gt;&amp;nbsp;&lt;/div&gt;" style="text;strokeColor=none;fillColor=none;align=left;verticalAlign=top;spacingLeft=4;spacingRight=4;overflow=hidden;rotatable=0;points=[[0,0.5],[1,0.5]];portConstraint=eastwest;whiteSpace=wrap;html=1;" vertex="1" parent="OZl_Llw-4M67hQVz8N4L-5">
          <mxGeometry y="26" width="140" height="26" as="geometry" />
        </mxCell>
        <mxCell id="OZl_Llw-4M67hQVz8N4L-7" value="&lt;div&gt;&lt;span style=&quot;background-color: initial;&quot;&gt;+ RedirigirPeticion()&lt;/span&gt;&lt;/div&gt;" style="text;strokeColor=none;fillColor=none;align=left;verticalAlign=top;spacingLeft=4;spacingRight=4;overflow=hidden;rotatable=0;points=[[0,0.5],[1,0.5]];portConstraint=eastwest;whiteSpace=wrap;html=1;" vertex="1" parent="OZl_Llw-4M67hQVz8N4L-5">
          <mxGeometry y="52" width="140" height="26" as="geometry" />
        </mxCell>
        <mxCell id="OZl_Llw-4M67hQVz8N4L-9" value="Router" style="swimlane;fontStyle=0;childLayout=stackLayout;horizontal=1;startSize=26;fillColor=none;horizontalStack=0;resizeParent=1;resizeParentMax=0;resizeLast=0;collapsible=1;marginBottom=0;whiteSpace=wrap;html=1;" vertex="1" parent="1">
          <mxGeometry x="730" y="390" width="140" height="78" as="geometry" />
        </mxCell>
        <mxCell id="OZl_Llw-4M67hQVz8N4L-10" value="&lt;div&gt;+ DefinirRutas()&lt;/div&gt;&lt;div&gt;&amp;nbsp;&lt;/div&gt;" style="text;strokeColor=none;fillColor=none;align=left;verticalAlign=top;spacingLeft=4;spacingRight=4;overflow=hidden;rotatable=0;points=[[0,0.5],[1,0.5]];portConstraint=eastwest;whiteSpace=wrap;html=1;" vertex="1" parent="OZl_Llw-4M67hQVz8N4L-9">
          <mxGeometry y="26" width="140" height="26" as="geometry" />
        </mxCell>
        <mxCell id="OZl_Llw-4M67hQVz8N4L-11" value="&lt;div&gt;&lt;span style=&quot;background-color: initial;&quot;&gt;+ RedirigirPeticiones()&lt;/span&gt;&lt;/div&gt;" style="text;strokeColor=none;fillColor=none;align=left;verticalAlign=top;spacingLeft=4;spacingRight=4;overflow=hidden;rotatable=0;points=[[0,0.5],[1,0.5]];portConstraint=eastwest;whiteSpace=wrap;html=1;" vertex="1" parent="OZl_Llw-4M67hQVz8N4L-9">
          <mxGeometry y="52" width="140" height="26" as="geometry" />
        </mxCell>
        <mxCell id="OZl_Llw-4M67hQVz8N4L-12" value="Controlador" style="swimlane;fontStyle=0;childLayout=stackLayout;horizontal=1;startSize=26;fillColor=none;horizontalStack=0;resizeParent=1;resizeParentMax=0;resizeLast=0;collapsible=1;marginBottom=0;whiteSpace=wrap;html=1;" vertex="1" parent="1">
          <mxGeometry x="1030" y="377" width="170" height="104" as="geometry" />
        </mxCell>
        <mxCell id="OZl_Llw-4M67hQVz8N4L-13" value="&lt;div&gt;+ ValidarDatos()&lt;/div&gt;&lt;div&gt;&amp;nbsp;&lt;/div&gt;" style="text;strokeColor=none;fillColor=none;align=left;verticalAlign=top;spacingLeft=4;spacingRight=4;overflow=hidden;rotatable=0;points=[[0,0.5],[1,0.5]];portConstraint=eastwest;whiteSpace=wrap;html=1;" vertex="1" parent="OZl_Llw-4M67hQVz8N4L-12">
          <mxGeometry y="26" width="170" height="26" as="geometry" />
        </mxCell>
        <mxCell id="OZl_Llw-4M67hQVz8N4L-14" value="&lt;div&gt;&lt;span style=&quot;background-color: initial;&quot;&gt;+&amp;nbsp;&lt;/span&gt;&lt;span style=&quot;background-color: initial;&quot;&gt;&amp;nbsp;EjecutarOperacion&lt;/span&gt;&lt;span style=&quot;background-color: initial;&quot;&gt;()&lt;/span&gt;&lt;/div&gt;" style="text;strokeColor=none;fillColor=none;align=left;verticalAlign=top;spacingLeft=4;spacingRight=4;overflow=hidden;rotatable=0;points=[[0,0.5],[1,0.5]];portConstraint=eastwest;whiteSpace=wrap;html=1;" vertex="1" parent="OZl_Llw-4M67hQVz8N4L-12">
          <mxGeometry y="52" width="170" height="26" as="geometry" />
        </mxCell>
        <mxCell id="OZl_Llw-4M67hQVz8N4L-18" value="&lt;div&gt;&lt;span style=&quot;background-color: initial;&quot;&gt;+&amp;nbsp;&lt;/span&gt;&lt;span style=&quot;background-color: initial;&quot;&gt;&amp;nbsp;EnviarDatosADataBase&lt;/span&gt;&lt;span style=&quot;background-color: initial;&quot;&gt;()&lt;/span&gt;&lt;/div&gt;" style="text;strokeColor=none;fillColor=none;align=left;verticalAlign=top;spacingLeft=4;spacingRight=4;overflow=hidden;rotatable=0;points=[[0,0.5],[1,0.5]];portConstraint=eastwest;whiteSpace=wrap;html=1;" vertex="1" parent="OZl_Llw-4M67hQVz8N4L-12">
          <mxGeometry y="78" width="170" height="26" as="geometry" />
        </mxCell>
        <mxCell id="OZl_Llw-4M67hQVz8N4L-15" value="MySQL" style="swimlane;fontStyle=0;childLayout=stackLayout;horizontal=1;startSize=26;fillColor=none;horizontalStack=0;resizeParent=1;resizeParentMax=0;resizeLast=0;collapsible=1;marginBottom=0;whiteSpace=wrap;html=1;" vertex="1" parent="1">
          <mxGeometry x="1360" y="370" width="140" height="130" as="geometry" />
        </mxCell>
        <mxCell id="OZl_Llw-4M67hQVz8N4L-16" value="&lt;div&gt;+ ConsultarDatos()&lt;/div&gt;&lt;div&gt;&amp;nbsp;&lt;/div&gt;" style="text;strokeColor=none;fillColor=none;align=left;verticalAlign=top;spacingLeft=4;spacingRight=4;overflow=hidden;rotatable=0;points=[[0,0.5],[1,0.5]];portConstraint=eastwest;whiteSpace=wrap;html=1;" vertex="1" parent="OZl_Llw-4M67hQVz8N4L-15">
          <mxGeometry y="26" width="140" height="26" as="geometry" />
        </mxCell>
        <mxCell id="OZl_Llw-4M67hQVz8N4L-17" value="&lt;div&gt;&lt;span style=&quot;background-color: initial;&quot;&gt;+ ModificarDatos()&lt;/span&gt;&lt;/div&gt;" style="text;strokeColor=none;fillColor=none;align=left;verticalAlign=top;spacingLeft=4;spacingRight=4;overflow=hidden;rotatable=0;points=[[0,0.5],[1,0.5]];portConstraint=eastwest;whiteSpace=wrap;html=1;" vertex="1" parent="OZl_Llw-4M67hQVz8N4L-15">
          <mxGeometry y="52" width="140" height="26" as="geometry" />
        </mxCell>
        <mxCell id="OZl_Llw-4M67hQVz8N4L-19" value="&lt;div&gt;&lt;span style=&quot;background-color: initial;&quot;&gt;+ AñadirDatos()&lt;/span&gt;&lt;/div&gt;" style="text;strokeColor=none;fillColor=none;align=left;verticalAlign=top;spacingLeft=4;spacingRight=4;overflow=hidden;rotatable=0;points=[[0,0.5],[1,0.5]];portConstraint=eastwest;whiteSpace=wrap;html=1;" vertex="1" parent="OZl_Llw-4M67hQVz8N4L-15">
          <mxGeometry y="78" width="140" height="26" as="geometry" />
        </mxCell>
        <mxCell id="OZl_Llw-4M67hQVz8N4L-20" value="&lt;div&gt;&lt;span style=&quot;background-color: initial;&quot;&gt;+ EliminarDatos()&lt;/span&gt;&lt;/div&gt;" style="text;strokeColor=none;fillColor=none;align=left;verticalAlign=top;spacingLeft=4;spacingRight=4;overflow=hidden;rotatable=0;points=[[0,0.5],[1,0.5]];portConstraint=eastwest;whiteSpace=wrap;html=1;" vertex="1" parent="OZl_Llw-4M67hQVz8N4L-15">
          <mxGeometry y="104" width="140" height="26" as="geometry" />
        </mxCell>
        <mxCell id="OZl_Llw-4M67hQVz8N4L-22" value="Redirige" style="endArrow=open;endSize=12;dashed=1;html=1;rounded=0;" edge="1" parent="1">
          <mxGeometry width="160" relative="1" as="geometry">
            <mxPoint x="570" y="428.5" as="sourcePoint" />
            <mxPoint x="730" y="428.5" as="targetPoint" />
          </mxGeometry>
        </mxCell>
        <mxCell id="OZl_Llw-4M67hQVz8N4L-23" value="Enlaza" style="endArrow=open;endSize=12;dashed=1;html=1;rounded=0;" edge="1" parent="1">
          <mxGeometry width="160" relative="1" as="geometry">
            <mxPoint x="870" y="428.5" as="sourcePoint" />
            <mxPoint x="1030" y="428.5" as="targetPoint" />
          </mxGeometry>
        </mxCell>
        <mxCell id="OZl_Llw-4M67hQVz8N4L-24" value="Conecta" style="endArrow=open;endSize=12;dashed=1;html=1;rounded=0;" edge="1" parent="1">
          <mxGeometry width="160" relative="1" as="geometry">
            <mxPoint x="1200" y="428.5" as="sourcePoint" />
            <mxPoint x="1360" y="428.5" as="targetPoint" />
          </mxGeometry>
        </mxCell>
        <mxCell id="OZl_Llw-4M67hQVz8N4L-59" style="edgeStyle=orthogonalEdgeStyle;rounded=0;orthogonalLoop=1;jettySize=auto;html=1;" edge="1" parent="1" source="OZl_Llw-4M67hQVz8N4L-30" target="OZl_Llw-4M67hQVz8N4L-34">
          <mxGeometry relative="1" as="geometry" />
        </mxCell>
        <mxCell id="OZl_Llw-4M67hQVz8N4L-30" value="Listar misiones" style="ellipse;whiteSpace=wrap;html=1;" vertex="1" parent="1">
          <mxGeometry x="805" y="1280" width="120" height="40" as="geometry" />
        </mxCell>
        <mxCell id="OZl_Llw-4M67hQVz8N4L-32" value="App" style="text;html=1;align=center;verticalAlign=middle;whiteSpace=wrap;rounded=0;" vertex="1" parent="1">
          <mxGeometry x="835" y="1220" width="60" height="30" as="geometry" />
        </mxCell>
        <mxCell id="OZl_Llw-4M67hQVz8N4L-50" style="edgeStyle=orthogonalEdgeStyle;rounded=0;orthogonalLoop=1;jettySize=auto;html=1;entryX=0;entryY=0.5;entryDx=0;entryDy=0;" edge="1" parent="1" source="OZl_Llw-4M67hQVz8N4L-33" target="OZl_Llw-4M67hQVz8N4L-30">
          <mxGeometry relative="1" as="geometry" />
        </mxCell>
        <mxCell id="OZl_Llw-4M67hQVz8N4L-33" value="Visitante" style="shape=umlActor;verticalLabelPosition=bottom;verticalAlign=top;html=1;outlineConnect=0;" vertex="1" parent="1">
          <mxGeometry x="510" y="1650" width="30" height="60" as="geometry" />
        </mxCell>
        <mxCell id="OZl_Llw-4M67hQVz8N4L-34" value="Actor" style="shape=umlActor;verticalLabelPosition=bottom;verticalAlign=top;html=1;outlineConnect=0;" vertex="1" parent="1">
          <mxGeometry x="1190" y="1610" width="30" height="60" as="geometry" />
        </mxCell>
        <mxCell id="OZl_Llw-4M67hQVz8N4L-36" value="Crear mision" style="ellipse;whiteSpace=wrap;html=1;" vertex="1" parent="1">
          <mxGeometry x="805" y="1340" width="120" height="40" as="geometry" />
        </mxCell>
        <mxCell id="OZl_Llw-4M67hQVz8N4L-37" value="Acceder a perfil" style="ellipse;whiteSpace=wrap;html=1;" vertex="1" parent="1">
          <mxGeometry x="805" y="1400" width="120" height="40" as="geometry" />
        </mxCell>
        <mxCell id="OZl_Llw-4M67hQVz8N4L-53" style="edgeStyle=orthogonalEdgeStyle;rounded=0;orthogonalLoop=1;jettySize=auto;html=1;" edge="1" parent="1" source="OZl_Llw-4M67hQVz8N4L-38" target="OZl_Llw-4M67hQVz8N4L-34">
          <mxGeometry relative="1" as="geometry" />
        </mxCell>
        <mxCell id="OZl_Llw-4M67hQVz8N4L-38" value="Consultar historial" style="ellipse;whiteSpace=wrap;html=1;" vertex="1" parent="1">
          <mxGeometry x="805" y="1460" width="120" height="40" as="geometry" />
        </mxCell>
        <mxCell id="OZl_Llw-4M67hQVz8N4L-54" style="edgeStyle=orthogonalEdgeStyle;rounded=0;orthogonalLoop=1;jettySize=auto;html=1;" edge="1" parent="1" source="OZl_Llw-4M67hQVz8N4L-39" target="OZl_Llw-4M67hQVz8N4L-34">
          <mxGeometry relative="1" as="geometry" />
        </mxCell>
        <mxCell id="OZl_Llw-4M67hQVz8N4L-39" value="Consultar mision" style="ellipse;whiteSpace=wrap;html=1;" vertex="1" parent="1">
          <mxGeometry x="805" y="1520" width="120" height="40" as="geometry" />
        </mxCell>
        <mxCell id="OZl_Llw-4M67hQVz8N4L-55" style="edgeStyle=orthogonalEdgeStyle;rounded=0;orthogonalLoop=1;jettySize=auto;html=1;" edge="1" parent="1" source="OZl_Llw-4M67hQVz8N4L-40" target="OZl_Llw-4M67hQVz8N4L-34">
          <mxGeometry relative="1" as="geometry" />
        </mxCell>
        <mxCell id="OZl_Llw-4M67hQVz8N4L-40" value="Ver pagos pendientes" style="ellipse;whiteSpace=wrap;html=1;" vertex="1" parent="1">
          <mxGeometry x="805" y="1580" width="120" height="40" as="geometry" />
        </mxCell>
        <mxCell id="OZl_Llw-4M67hQVz8N4L-56" style="edgeStyle=orthogonalEdgeStyle;rounded=0;orthogonalLoop=1;jettySize=auto;html=1;" edge="1" parent="1" source="OZl_Llw-4M67hQVz8N4L-41" target="OZl_Llw-4M67hQVz8N4L-34">
          <mxGeometry relative="1" as="geometry" />
        </mxCell>
        <mxCell id="OZl_Llw-4M67hQVz8N4L-41" value="Confirmar pago" style="ellipse;whiteSpace=wrap;html=1;" vertex="1" parent="1">
          <mxGeometry x="805" y="1640" width="120" height="40" as="geometry" />
        </mxCell>
        <mxCell id="OZl_Llw-4M67hQVz8N4L-57" style="edgeStyle=orthogonalEdgeStyle;rounded=0;orthogonalLoop=1;jettySize=auto;html=1;" edge="1" parent="1" source="OZl_Llw-4M67hQVz8N4L-42" target="OZl_Llw-4M67hQVz8N4L-34">
          <mxGeometry relative="1" as="geometry" />
        </mxCell>
        <mxCell id="OZl_Llw-4M67hQVz8N4L-42" value="Ver reputación" style="ellipse;whiteSpace=wrap;html=1;" vertex="1" parent="1">
          <mxGeometry x="805" y="1700" width="120" height="40" as="geometry" />
        </mxCell>
        <mxCell id="OZl_Llw-4M67hQVz8N4L-58" style="edgeStyle=orthogonalEdgeStyle;rounded=0;orthogonalLoop=1;jettySize=auto;html=1;" edge="1" parent="1" source="OZl_Llw-4M67hQVz8N4L-43" target="OZl_Llw-4M67hQVz8N4L-34">
          <mxGeometry relative="1" as="geometry" />
        </mxCell>
        <mxCell id="OZl_Llw-4M67hQVz8N4L-43" value="Dar reputación" style="ellipse;whiteSpace=wrap;html=1;" vertex="1" parent="1">
          <mxGeometry x="805" y="1760" width="120" height="40" as="geometry" />
        </mxCell>
        <mxCell id="OZl_Llw-4M67hQVz8N4L-51" style="edgeStyle=orthogonalEdgeStyle;rounded=0;orthogonalLoop=1;jettySize=auto;html=1;entryX=0.5;entryY=0;entryDx=0;entryDy=0;entryPerimeter=0;" edge="1" parent="1" source="OZl_Llw-4M67hQVz8N4L-36" target="OZl_Llw-4M67hQVz8N4L-34">
          <mxGeometry relative="1" as="geometry" />
        </mxCell>
        <mxCell id="OZl_Llw-4M67hQVz8N4L-52" style="edgeStyle=orthogonalEdgeStyle;rounded=0;orthogonalLoop=1;jettySize=auto;html=1;entryX=0.5;entryY=0;entryDx=0;entryDy=0;entryPerimeter=0;" edge="1" parent="1" source="OZl_Llw-4M67hQVz8N4L-37" target="OZl_Llw-4M67hQVz8N4L-34">
          <mxGeometry relative="1" as="geometry" />
        </mxCell>
        <mxCell id="OZl_Llw-4M67hQVz8N4L-78" style="edgeStyle=orthogonalEdgeStyle;rounded=0;orthogonalLoop=1;jettySize=auto;html=1;entryX=0.5;entryY=1;entryDx=0;entryDy=0;" edge="1" parent="1" source="OZl_Llw-4M67hQVz8N4L-60" target="OZl_Llw-4M67hQVz8N4L-65">
          <mxGeometry relative="1" as="geometry" />
        </mxCell>
        <mxCell id="OZl_Llw-4M67hQVz8N4L-82" style="edgeStyle=orthogonalEdgeStyle;rounded=0;orthogonalLoop=1;jettySize=auto;html=1;entryX=1;entryY=0.5;entryDx=0;entryDy=0;" edge="1" parent="1" source="OZl_Llw-4M67hQVz8N4L-60" target="OZl_Llw-4M67hQVz8N4L-67">
          <mxGeometry relative="1" as="geometry" />
        </mxCell>
        <mxCell id="OZl_Llw-4M67hQVz8N4L-84" style="edgeStyle=orthogonalEdgeStyle;rounded=0;orthogonalLoop=1;jettySize=auto;html=1;entryX=0.5;entryY=0;entryDx=0;entryDy=0;" edge="1" parent="1" source="OZl_Llw-4M67hQVz8N4L-60" target="OZl_Llw-4M67hQVz8N4L-68">
          <mxGeometry relative="1" as="geometry" />
        </mxCell>
        <mxCell id="OZl_Llw-4M67hQVz8N4L-90" style="edgeStyle=orthogonalEdgeStyle;rounded=0;orthogonalLoop=1;jettySize=auto;html=1;entryX=0;entryY=0.5;entryDx=0;entryDy=0;" edge="1" parent="1" source="OZl_Llw-4M67hQVz8N4L-60" target="OZl_Llw-4M67hQVz8N4L-66">
          <mxGeometry relative="1" as="geometry" />
        </mxCell>
        <mxCell id="OZl_Llw-4M67hQVz8N4L-60" value="Usuario" style="rounded=0;whiteSpace=wrap;html=1;" vertex="1" parent="1">
          <mxGeometry x="1920" y="1170" width="120" height="60" as="geometry" />
        </mxCell>
        <mxCell id="OZl_Llw-4M67hQVz8N4L-61" value="Mision" style="rounded=0;whiteSpace=wrap;html=1;" vertex="1" parent="1">
          <mxGeometry x="1520" y="1170" width="120" height="60" as="geometry" />
        </mxCell>
        <mxCell id="OZl_Llw-4M67hQVz8N4L-62" value="Crear mision" style="rounded=0;whiteSpace=wrap;html=1;" vertex="1" parent="1">
          <mxGeometry x="2240" y="1170" width="120" height="60" as="geometry" />
        </mxCell>
        <mxCell id="OZl_Llw-4M67hQVz8N4L-63" value="Pago" style="rounded=0;whiteSpace=wrap;html=1;" vertex="1" parent="1">
          <mxGeometry x="1920" y="1360" width="120" height="60" as="geometry" />
        </mxCell>
        <mxCell id="OZl_Llw-4M67hQVz8N4L-64" value="Reputación" style="rounded=0;whiteSpace=wrap;html=1;" vertex="1" parent="1">
          <mxGeometry x="1920" y="960" width="120" height="60" as="geometry" />
        </mxCell>
        <mxCell id="OZl_Llw-4M67hQVz8N4L-81" style="edgeStyle=orthogonalEdgeStyle;rounded=0;orthogonalLoop=1;jettySize=auto;html=1;" edge="1" parent="1" source="OZl_Llw-4M67hQVz8N4L-65" target="OZl_Llw-4M67hQVz8N4L-64">
          <mxGeometry relative="1" as="geometry" />
        </mxCell>
        <mxCell id="OZl_Llw-4M67hQVz8N4L-65" value="dar" style="rhombus;whiteSpace=wrap;html=1;" vertex="1" parent="1">
          <mxGeometry x="1950" y="1070" width="60" height="60" as="geometry" />
        </mxCell>
        <mxCell id="OZl_Llw-4M67hQVz8N4L-91" value="" style="edgeStyle=orthogonalEdgeStyle;rounded=0;orthogonalLoop=1;jettySize=auto;html=1;" edge="1" parent="1" source="OZl_Llw-4M67hQVz8N4L-66" target="OZl_Llw-4M67hQVz8N4L-62">
          <mxGeometry relative="1" as="geometry" />
        </mxCell>
        <mxCell id="OZl_Llw-4M67hQVz8N4L-66" value="crear" style="rhombus;whiteSpace=wrap;html=1;" vertex="1" parent="1">
          <mxGeometry x="2110" y="1170" width="60" height="60" as="geometry" />
        </mxCell>
        <mxCell id="OZl_Llw-4M67hQVz8N4L-83" style="edgeStyle=orthogonalEdgeStyle;rounded=0;orthogonalLoop=1;jettySize=auto;html=1;" edge="1" parent="1" source="OZl_Llw-4M67hQVz8N4L-67" target="OZl_Llw-4M67hQVz8N4L-61">
          <mxGeometry relative="1" as="geometry" />
        </mxCell>
        <mxCell id="OZl_Llw-4M67hQVz8N4L-67" value="unirse" style="rhombus;whiteSpace=wrap;html=1;" vertex="1" parent="1">
          <mxGeometry x="1730" y="1170" width="60" height="60" as="geometry" />
        </mxCell>
        <mxCell id="OZl_Llw-4M67hQVz8N4L-85" style="edgeStyle=orthogonalEdgeStyle;rounded=0;orthogonalLoop=1;jettySize=auto;html=1;" edge="1" parent="1" source="OZl_Llw-4M67hQVz8N4L-68" target="OZl_Llw-4M67hQVz8N4L-63">
          <mxGeometry relative="1" as="geometry" />
        </mxCell>
        <mxCell id="OZl_Llw-4M67hQVz8N4L-68" value="tramitar" style="rhombus;whiteSpace=wrap;html=1;" vertex="1" parent="1">
          <mxGeometry x="1950" y="1270" width="60" height="60" as="geometry" />
        </mxCell>
        <mxCell id="OZl_Llw-4M67hQVz8N4L-75" value="(N,0)" style="text;html=1;align=center;verticalAlign=middle;whiteSpace=wrap;rounded=0;" vertex="1" parent="1">
          <mxGeometry x="1650" y="1170" width="60" height="30" as="geometry" />
        </mxCell>
        <mxCell id="OZl_Llw-4M67hQVz8N4L-76" value="(N,0)" style="text;html=1;align=center;verticalAlign=middle;whiteSpace=wrap;rounded=0;" vertex="1" parent="1">
          <mxGeometry x="1860" y="1170" width="60" height="30" as="geometry" />
        </mxCell>
        <mxCell id="OZl_Llw-4M67hQVz8N4L-77" value="(0,N)" style="text;html=1;align=center;verticalAlign=middle;whiteSpace=wrap;rounded=0;" vertex="1" parent="1">
          <mxGeometry x="1920" y="1020" width="60" height="30" as="geometry" />
        </mxCell>
        <mxCell id="OZl_Llw-4M67hQVz8N4L-80" value="(0,N)" style="text;html=1;align=center;verticalAlign=middle;whiteSpace=wrap;rounded=0;" vertex="1" parent="1">
          <mxGeometry x="1920" y="1140" width="60" height="30" as="geometry" />
        </mxCell>
        <mxCell id="OZl_Llw-4M67hQVz8N4L-86" value="(0,N)" style="text;html=1;align=center;verticalAlign=middle;whiteSpace=wrap;rounded=0;" vertex="1" parent="1">
          <mxGeometry x="1920" y="1230" width="60" height="30" as="geometry" />
        </mxCell>
        <mxCell id="OZl_Llw-4M67hQVz8N4L-88" value="(0,N)" style="text;html=1;align=center;verticalAlign=middle;whiteSpace=wrap;rounded=0;" vertex="1" parent="1">
          <mxGeometry x="1920" y="1330" width="60" height="30" as="geometry" />
        </mxCell>
        <mxCell id="OZl_Llw-4M67hQVz8N4L-89" value="(0,N)" style="text;html=1;align=center;verticalAlign=middle;whiteSpace=wrap;rounded=0;" vertex="1" parent="1">
          <mxGeometry x="2040" y="1200" width="60" height="30" as="geometry" />
        </mxCell>
        <mxCell id="OZl_Llw-4M67hQVz8N4L-92" value="(0,N)" style="text;html=1;align=center;verticalAlign=middle;whiteSpace=wrap;rounded=0;" vertex="1" parent="1">
          <mxGeometry x="2180" y="1200" width="60" height="30" as="geometry" />
        </mxCell>
      </root>
    </mxGraphModel>
  </diagram>
</mxfile>
